<svg xmlns="http://www.w3.org/2000/svg" viewBox="0 0 32 32" role="img" aria-label="Anvil Hotline">
  <!-- Graphite tile + signal-red handset -->
  <rect width="32" height="32" rx="8" fill="#0f1117"/>
  <rect x="1" y="1" width="30" height="30" rx="7" fill="none" stroke="#ff4b4b" stroke-opacity="0.3" stroke-width="1"/>
  <path fill="#ff4b4b" d="M7.5 11.2c.3-1.4 1.6-2.4 3-2.2l1.8.3c1 .2 1.7 1.1 1.6 2.1l-.2 2.1c-.1.8-.7 1.4-1.5 1.5l-1.2.2c.5 1.6 1.4 3.1 2.6 4.3l4.3 2.6.2-1.2c.1-.8.7-1.4 1.5-1.5l2.1-.2c1-.1 1.9.6 2.1 1.6l.3 1.8c.2 1.4-.8 2.7-2.2 3-3.3.7-8.4-.7-12-4.3C7.7 18.5 6.8 14.6 7.5 11.2z"/>
  <circle cx="24.6" cy="7.4" r="1.3" fill="#f4f7ff"/>
  <circle cx="24.6" cy="7.4" r="2.5" fill="none" stroke="#ff4b4b" stroke-opacity="0.55" stroke-width="0.9"/>
</svg>
